<svg preserveAspectRatio="none" overflow="visible" style="display: block;" width="22" height="22" viewBox="0 0 22 22" fill="none" xmlns="http://www.w3.org/2000/svg">
<g id="lock-keyhole">
<path id="Vector" d="M6.41667 9.16652V6.4163C6.41667 5.20063 6.89955 4.03475 7.75909 3.17513C8.61864 2.31552 9.78442 1.8326 11 1.8326C12.2156 1.8326 13.3814 2.31552 14.2409 3.17513C15.1004 4.03475 15.5833 5.20063 15.5833 6.4163V9.16652M11.9167 14.667C11.9167 15.1733 11.5063 15.5837 11 15.5837C10.4937 15.5837 10.0833 15.1733 10.0833 14.667C10.0833 14.1607 10.4937 13.7502 11 13.7502C11.5063 13.7502 11.9167 14.1607 11.9167 14.667ZM4.58333 9.16652H17.4167C18.4292 9.16652 19.25 9.9874 19.25 11V18.3339C19.25 19.3465 18.4292 20.1674 17.4167 20.1674H4.58333C3.57081 20.1674 2.75 19.3465 2.75 18.3339V11C2.75 9.9874 3.57081 9.16652 4.58333 9.16652Z" stroke="#302820" stroke-linecap="round"/>
</g>
</svg>
